<svg width="8.000000" height="13.000000" viewBox="0 0 8 13" fill="none" xmlns="http://www.w3.org/2000/svg" xmlns:xlink="http://www.w3.org/1999/xlink">
	<desc>
			Created with Pixso.
	</desc>
	<defs/>
	<path id="Path" d="M7.5 6.5C7.5 6.28 7.41 6.07 7.24 5.9L1.96 0.74C1.63 0.41 1.08 0.41 0.75 0.74C0.41 1.07 0.41 1.6 0.75 1.93L5.42 6.5L0.75 11.06C0.41 11.39 0.41 11.92 0.75 12.25C1.08 12.58 1.63 12.58 1.96 12.25L7.24 7.09C7.41 6.92 7.5 6.71 7.5 6.5Z" fill="#FFC59E" fill-opacity="1.000000" fill-rule="nonzero"/>
	<path id="Path" d="M7.24 5.9L1.96 0.74C1.63 0.41 1.08 0.41 0.75 0.74C0.41 1.07 0.41 1.6 0.75 1.93L5.42 6.5L0.75 11.06C0.41 11.39 0.41 11.92 0.75 12.25C1.08 12.58 1.63 12.58 1.96 12.25L7.24 7.09C7.41 6.92 7.5 6.71 7.5 6.5C7.5 6.28 7.41 6.07 7.24 5.9Z" stroke="#FFC59E" stroke-opacity="1.000000" stroke-width="1.000000"/>
</svg>
