<svg width="39.975586" height="40.000000" viewBox="0 0 39.9756 40" fill="none" xmlns="http://www.w3.org/2000/svg" xmlns:xlink="http://www.w3.org/1999/xlink">
	<desc>
			Created with Pixso.
	</desc>
	<defs/>
	<path id="Ellipse 3" d="M39.97 19C39.76 14.73 38.18 10.63 35.46 7.31C32.52 3.73 28.44 1.28 23.9 0.38C19.36 -0.52 14.65 0.18 10.57 2.36C6.49 4.54 3.29 8.07 1.52 12.34C-0.25 16.62 -0.49 21.37 0.86 25.8C2.2 30.23 5.04 34.05 8.88 36.62C12.73 39.2 17.35 40.35 21.96 39.9C26.23 39.48 30.24 37.7 33.41 34.83C33.82 34.46 33.82 33.82 33.43 33.43C33.04 33.04 32.41 33.04 32 33.41C29.16 35.95 25.57 37.53 21.76 37.91C17.62 38.32 13.46 37.28 10 34.96C6.53 32.65 3.98 29.21 2.77 25.22C1.56 21.24 1.77 16.95 3.37 13.11C4.96 9.26 7.84 6.08 11.51 4.12C15.18 2.16 19.42 1.53 23.51 2.34C27.59 3.15 31.27 5.36 33.91 8.58C36.34 11.54 37.76 15.19 37.97 19C38 19.55 38.44 20 39 20C39.55 20 40 19.55 39.97 19Z" fill="#080606" fill-opacity="1.000000" fill-rule="nonzero"/>
</svg>
