<svg width="48.774414" height="48.774414" viewBox="0 0 48.7744 48.7744" fill="none" xmlns="http://www.w3.org/2000/svg" xmlns:xlink="http://www.w3.org/1999/xlink">
	<desc>
			Created with Pixso.
	</desc>
	<defs/>
	<path id="Vector" d="M42.57 0.5L34.28 0.5C31.99 0.5 30.01 1.86 29.1 3.81C27.63 3.47 26.05 3.29 24.38 3.29C22.71 3.29 21.13 3.47 19.66 3.81C18.76 1.86 16.78 0.5 14.49 0.5L6.19 0.5C3.05 0.5 0.5 3.05 0.5 6.19C0.5 7.35 0.84 8.53 1.45 9.45L5.05 14.85C5.63 15.71 6.45 16.4 7.4 16.83C5.64 23.9 6.19 35.81 6.19 35.58C6.19 40.98 10.58 45.38 15.98 45.38C16.87 45.38 17.73 45.26 18.54 45.04C19.83 47.01 22.05 48.27 24.38 48.27C26.72 48.27 28.93 47.01 30.22 45.04C31.04 45.26 31.9 45.38 32.78 45.38C38.18 45.38 42.58 40.98 42.58 35.58C42.58 28.45 42.92 22.53 41.38 16.83C42.32 16.39 43.14 15.71 43.71 14.85L47.31 9.45C47.92 8.53 48.27 7.35 48.27 6.19C48.27 3.05 45.71 0.5 42.57 0.5ZM7.38 13.29L3.78 7.89C3.48 7.44 3.29 6.79 3.29 6.19C3.29 4.59 4.59 3.29 6.19 3.29L14.49 3.29C16.08 3.29 17.38 4.59 17.38 6.19C17.38 6.79 17.2 7.44 16.9 7.89L13.3 13.29C12.76 14.1 11.86 14.58 10.89 14.58L9.89 14.58C8.89 14.58 7.9 14.08 7.38 13.29ZM24.38 45.47C23.15 45.47 21.96 44.87 21.16 43.89C22.48 43.07 23.58 41.95 24.38 40.62C25.18 41.95 26.29 43.07 27.6 43.89C26.8 44.87 25.62 45.47 24.38 45.47ZM23.07 32.29C23.27 31.76 23.78 31.38 24.38 31.38C24.98 31.38 25.49 31.76 25.69 32.29L24.38 33.6L23.07 32.29ZM39.78 35.58C39.78 39.44 36.64 42.58 32.78 42.58C29.11 42.58 26.09 39.74 25.8 36.14L28.17 33.77C28.43 33.51 28.58 33.15 28.58 32.78C28.58 30.46 26.7 28.58 24.38 28.58C22.07 28.58 20.18 30.46 20.18 32.78C20.18 33.15 20.33 33.51 20.59 33.77L22.96 36.14C22.68 39.74 19.66 42.58 15.98 42.58C12.13 42.58 8.99 39.44 8.99 35.58C8.99 35.22 8.46 23.99 10.15 17.38L10.89 17.38C12.79 17.38 14.57 16.44 15.62 14.85L19.23 9.45C19.77 8.63 20.1 7.6 20.17 6.57C21.47 6.25 22.88 6.09 24.38 6.09C25.88 6.09 27.3 6.25 28.59 6.57C28.66 7.6 29 8.63 29.54 9.45L33.14 14.85C33.39 15.22 33.68 15.56 34 15.86C32.86 15.06 31.48 14.58 29.98 14.58C26.12 14.58 22.98 17.72 22.98 21.58C22.98 25.44 26.12 28.58 29.98 28.58C33.84 28.58 36.98 25.44 36.98 21.58C36.98 19.53 36.09 17.68 34.68 16.4C35.61 17.03 36.72 17.38 37.88 17.38L38.63 17.38C40.11 22.71 39.78 28.28 39.78 35.58ZM34.18 21.58C34.18 23.9 32.3 25.78 29.98 25.78C27.66 25.78 25.78 23.9 25.78 21.58C25.78 19.27 27.66 17.38 29.98 17.38C32.3 17.38 34.18 19.27 34.18 21.58ZM44.98 7.89L41.38 13.29C40.86 14.08 39.88 14.58 38.88 14.58L37.88 14.58C36.91 14.58 36.01 14.1 35.47 13.29L31.87 7.89C31.57 7.44 31.38 6.79 31.38 6.19C31.38 4.59 32.68 3.29 34.28 3.29L42.57 3.29C44.17 3.29 45.47 4.59 45.47 6.19C45.47 6.79 45.28 7.44 44.98 7.89Z" fill="#FFC59E" fill-opacity="1.000000" fill-rule="nonzero"/>
	<path id="Vector" d="M34.28 0.5C31.99 0.5 30.01 1.86 29.1 3.81C27.63 3.47 26.05 3.29 24.38 3.29C22.71 3.29 21.13 3.47 19.66 3.81C18.76 1.86 16.78 0.5 14.49 0.5L6.19 0.5C3.05 0.5 0.5 3.05 0.5 6.19C0.5 7.35 0.84 8.53 1.45 9.45L5.05 14.85C5.63 15.71 6.45 16.4 7.4 16.83C5.64 23.9 6.19 35.81 6.19 35.58C6.19 40.98 10.58 45.38 15.98 45.38C16.87 45.38 17.73 45.26 18.54 45.04C19.83 47.01 22.05 48.27 24.38 48.27C26.72 48.27 28.93 47.01 30.22 45.04C31.04 45.26 31.9 45.38 32.78 45.38C38.18 45.38 42.58 40.98 42.58 35.58C42.58 28.45 42.92 22.53 41.38 16.83C42.32 16.39 43.14 15.71 43.71 14.85L47.31 9.45C47.92 8.53 48.27 7.35 48.27 6.19C48.27 3.05 45.71 0.5 42.57 0.5L34.28 0.5ZM3.78 7.89C3.48 7.44 3.29 6.79 3.29 6.19C3.29 4.59 4.59 3.29 6.19 3.29L14.49 3.29C16.08 3.29 17.38 4.59 17.38 6.19C17.38 6.79 17.2 7.44 16.9 7.89L13.3 13.29C12.76 14.1 11.86 14.58 10.89 14.58L9.89 14.58C8.89 14.58 7.9 14.08 7.38 13.29L3.78 7.89ZM21.16 43.89C22.48 43.07 23.58 41.95 24.38 40.62C25.18 41.95 26.29 43.07 27.6 43.89C26.8 44.87 25.62 45.47 24.38 45.47C23.15 45.47 21.96 44.87 21.16 43.89ZM24.38 31.38C24.98 31.38 25.49 31.76 25.69 32.29L24.38 33.6L23.07 32.29C23.27 31.76 23.78 31.38 24.38 31.38ZM32.78 42.58C29.11 42.58 26.09 39.74 25.8 36.14L28.17 33.77C28.43 33.51 28.58 33.15 28.58 32.78C28.58 30.46 26.7 28.58 24.38 28.58C22.07 28.58 20.18 30.46 20.18 32.78C20.18 33.15 20.33 33.51 20.59 33.77L22.96 36.14C22.68 39.74 19.66 42.58 15.98 42.58C12.13 42.58 8.99 39.44 8.99 35.58C8.99 35.22 8.46 23.99 10.15 17.38L10.89 17.38C12.79 17.38 14.57 16.44 15.62 14.85L19.23 9.45C19.77 8.63 20.1 7.6 20.17 6.57C21.47 6.25 22.88 6.09 24.38 6.09C25.88 6.09 27.3 6.25 28.59 6.57C28.66 7.6 29 8.63 29.54 9.45L33.14 14.85C33.39 15.22 33.68 15.56 34 15.86C32.86 15.06 31.48 14.58 29.98 14.58C26.12 14.58 22.98 17.72 22.98 21.58C22.98 25.44 26.12 28.58 29.98 28.58C33.84 28.58 36.98 25.44 36.98 21.58C36.98 19.53 36.09 17.68 34.68 16.4C35.61 17.03 36.72 17.38 37.88 17.38L38.63 17.38C40.11 22.71 39.78 28.28 39.78 35.58C39.78 39.44 36.64 42.58 32.78 42.58ZM29.98 25.78C27.66 25.78 25.78 23.9 25.78 21.58C25.78 19.27 27.66 17.38 29.98 17.38C32.3 17.38 34.18 19.27 34.18 21.58C34.18 23.9 32.3 25.78 29.98 25.78ZM41.38 13.29C40.86 14.08 39.88 14.58 38.88 14.58L37.88 14.58C36.91 14.58 36.01 14.1 35.47 13.29L31.87 7.89C31.57 7.44 31.38 6.79 31.38 6.19C31.38 4.59 32.68 3.29 34.28 3.29L42.57 3.29C44.17 3.29 45.47 4.59 45.47 6.19C45.47 6.79 45.28 7.44 44.98 7.89L41.38 13.29Z" stroke="#FFC59E" stroke-opacity="1.000000" stroke-width="1.000000"/>
	<path id="Vector" d="M18.78 22.98C19.56 22.98 20.18 22.36 20.18 21.58C20.18 20.81 19.56 20.18 18.78 20.18C18.01 20.18 17.38 20.81 17.38 21.58C17.38 22.36 18.01 22.98 18.78 22.98Z" fill="#FFC59E" fill-opacity="1.000000" fill-rule="nonzero"/>
	<path id="Vector" d="M18.78 22.98C18.01 22.98 17.38 22.36 17.38 21.58C17.38 20.81 18.01 20.18 18.78 20.18C19.56 20.18 20.18 20.81 20.18 21.58C20.18 22.36 19.56 22.98 18.78 22.98Z" stroke="#FFC59E" stroke-opacity="1.000000" stroke-width="1.000000"/>
	<path id="Vector" d="M29.98 22.98C30.75 22.98 31.38 22.36 31.38 21.58C31.38 20.81 30.75 20.18 29.98 20.18C29.21 20.18 28.58 20.81 28.58 21.58C28.58 22.36 29.21 22.98 29.98 22.98Z" fill="#FFC59E" fill-opacity="1.000000" fill-rule="nonzero"/>
	<path id="Vector" d="M29.98 22.98C29.21 22.98 28.58 22.36 28.58 21.58C28.58 20.81 29.21 20.18 29.98 20.18C30.75 20.18 31.38 20.81 31.38 21.58C31.38 22.36 30.75 22.98 29.98 22.98Z" stroke="#FFC59E" stroke-opacity="1.000000" stroke-width="1.000000"/>
</svg>
