<svg width="90.838867" height="90.838867" viewBox="0 0 90.8389 90.8389" fill="none" xmlns="http://www.w3.org/2000/svg" xmlns:xlink="http://www.w3.org/1999/xlink">
	<desc>
			Created with Pixso.
	</desc>
	<defs/>
	<path id="Vector" d="M80 0L64.23 0C59.87 0 56.11 2.58 54.39 6.3C51.6 5.65 48.59 5.32 45.41 5.32C42.24 5.32 39.23 5.65 36.43 6.3C34.72 2.58 30.96 0 26.6 0L10.83 0C4.85 0 0 4.85 0 10.83C0 13.02 0.66 15.28 1.81 17.01L8.66 27.28C9.76 28.93 11.32 30.23 13.13 31.06C9.78 44.49 10.82 67.15 10.82 66.71C10.82 76.98 19.17 85.33 29.45 85.33C31.13 85.33 32.76 85.11 34.31 84.69C36.77 88.44 40.98 90.83 45.41 90.83C49.85 90.83 54.06 88.44 56.52 84.69C58.07 85.11 59.7 85.33 61.38 85.33C71.65 85.33 80.01 76.98 80.01 66.71C80.01 53.15 80.66 41.89 77.73 31.05C79.52 30.21 81.08 28.92 82.17 27.28L89.01 17.01C90.17 15.28 90.83 13.02 90.83 10.83C90.83 4.85 85.97 0 80 0ZM13.09 24.33L6.24 14.06C5.67 13.21 5.32 11.97 5.32 10.83C5.32 7.79 7.79 5.32 10.83 5.32L26.6 5.32C29.64 5.32 32.11 7.79 32.11 10.83C32.11 11.97 31.75 13.21 31.18 14.06L24.33 24.33C23.31 25.87 21.6 26.79 19.75 26.79L17.85 26.79C15.95 26.79 14.08 25.82 13.09 24.33ZM45.41 85.51C43.06 85.51 40.81 84.36 39.3 82.51C41.79 80.95 43.89 78.81 45.41 76.29C46.93 78.81 49.04 80.95 51.53 82.51C50.02 84.36 47.76 85.51 45.41 85.51ZM42.92 60.45C43.3 59.44 44.28 58.72 45.41 58.72C46.55 58.72 47.53 59.44 47.91 60.45L45.41 62.94L42.92 60.45ZM74.69 66.71C74.69 74.04 68.72 80.01 61.38 80.01C54.4 80.01 48.66 74.61 48.12 67.77L52.62 63.26C53.12 62.76 53.4 62.09 53.4 61.38C53.4 56.98 49.82 53.4 45.41 53.4C41.01 53.4 37.43 56.98 37.43 61.38C37.43 62.09 37.71 62.76 38.21 63.26L42.71 67.77C42.17 74.61 36.43 80.01 29.45 80.01C22.11 80.01 16.14 74.04 16.14 66.71C16.14 66.02 15.15 44.67 18.35 32.11L19.75 32.11C23.38 32.11 26.75 30.3 28.76 27.28L35.61 17.01C36.64 15.47 37.28 13.5 37.41 11.54C39.87 10.94 42.56 10.64 45.41 10.64C48.27 10.64 50.96 10.94 53.42 11.54C53.55 13.5 54.19 15.47 55.22 17.01L62.06 27.28C62.54 28 63.09 28.64 63.7 29.21C61.54 27.68 58.9 26.79 56.06 26.79C48.72 26.79 42.75 32.75 42.75 40.09C42.75 47.43 48.72 53.4 56.06 53.4C63.4 53.4 69.37 47.43 69.37 40.09C69.37 36.19 67.68 32.68 65 30.24C66.76 31.44 68.87 32.11 71.08 32.11L72.5 32.11C75.32 42.23 74.69 52.83 74.69 66.71ZM64.04 40.09C64.04 44.49 60.46 48.08 56.06 48.08C51.66 48.08 48.08 44.49 48.08 40.09C48.08 35.69 51.66 32.11 56.06 32.11C60.46 32.11 64.04 35.69 64.04 40.09ZM84.59 14.06L77.74 24.33C76.75 25.82 74.88 26.79 72.98 26.79L71.08 26.79C69.23 26.79 67.52 25.87 66.49 24.33C66.49 24.33 66.49 24.33 66.49 24.33L59.65 14.06C59.08 13.21 58.72 11.97 58.72 10.83C58.72 7.79 61.19 5.32 64.23 5.32L80 5.32C83.04 5.32 85.51 7.79 85.51 10.83C85.51 11.97 85.16 13.21 84.59 14.06Z" fill="#FFC59E" fill-opacity="1.000000" fill-rule="nonzero"/>
</svg>
