<svg width="79.013672" height="62.374023" viewBox="0 0 79.0137 62.374" fill="none" xmlns="http://www.w3.org/2000/svg" xmlns:xlink="http://www.w3.org/1999/xlink">
	<desc>
			Created with Pixso.
	</desc>
	<defs/>
	<path id="Combined Shape" d="M1.42 46.78C2.68 46.08 3.17 47.22 2.36 47.45C0.54 47.96 1.11 50.44 2.92 50.91C4.22 51.26 7.79 50.79 8.68 50.57C8.85 50.49 10.58 50.42 12.35 50.4C14.13 50.38 16.96 51.14 17.71 51.25C18.46 51.36 19.69 51.58 20.45 51.59C21.22 51.6 22.47 51.12 22.49 51.11C22.51 51.11 22.58 51.04 22.72 50.86C22.87 50.69 23.36 50.34 23.4 50.35C23.43 50.35 23.49 50.48 23.51 50.7C23.54 50.92 23.42 51.07 23.42 51.07C23.42 51.07 24.12 50.89 24.12 51C24.12 51.11 23.94 51.43 23.92 51.46C23.9 51.5 24.64 52.06 24.82 52.32C25 52.58 24.93 52.57 24.99 52.88C25.04 53.19 25.51 53.97 25.53 54.05C25.55 54.12 25.53 54.14 25.46 54.2C25.38 54.27 25.39 54.23 25.3 54.32C25.21 54.4 24.89 54.8 24.51 54.99C24.14 55.17 24.08 55.02 23.78 54.84C23.48 54.67 22.1 54.89 21.84 55.09C21.63 55.25 21.17 55.7 21.01 55.86L20.95 55.92C20.95 55.92 20.88 56.03 20.79 56.45C20.7 56.87 20.74 57.29 20.85 57.99C20.95 58.69 22.07 60.31 22.25 60.45C22.41 60.58 22.72 60.73 22.94 60.97C23.15 61.21 22.96 61.35 22.73 61.43C22.5 61.5 21.92 61.38 21.74 61.31C21.56 61.24 21.47 60.72 20.88 60.3C20.29 59.88 19.36 59.1 19.21 58.72C19.07 58.33 18.94 57.27 18.94 57.27C18.94 57.27 18.82 57.56 18.42 58.06C18.03 58.55 17.11 59.38 17.11 59.73C17.11 60.08 17.22 60.65 17.35 60.87C17.47 61.09 17.65 61.11 17.81 61.16L17.9 61.19C18.03 61.24 18.18 61.3 18.3 61.51C18.44 61.77 18.28 61.84 18.01 61.84C17.74 61.84 17.37 61.97 16.9 61.79C16.43 61.6 15.57 60.04 15.37 59.66C15.18 59.27 15.61 58.55 15.79 58.22C15.97 57.89 16.22 57.45 16.22 57.45C16.22 57.45 14.57 57.47 13.71 57.25C12.84 57.03 11.86 56.95 11.86 56.95C11.86 56.95 11.78 57.36 11.64 57.95C11.5 58.53 10.81 59.21 10.74 59.43C10.67 59.66 11.14 60.11 11.41 60.41C11.68 60.7 12.21 60.9 12.43 61.05C12.64 61.2 12.9 61.44 12.75 61.73C12.61 62.03 12.48 61.77 12.23 61.82C11.98 61.88 11.35 61.97 10.92 61.88C10.49 61.79 10.47 61.24 9.9 60.74C9.33 60.24 8.73 59.69 8.79 59.36C8.84 59.03 8.91 57.54 8.9 57.45C8.88 57.36 8.14 57.96 7.35 58.35C6.56 58.74 4.95 59.13 4.85 59.4C4.75 59.66 4.43 60.9 4.48 61.26C4.54 61.63 4.63 61.84 4.73 62.04L4.77 62.12C4.83 62.23 4.82 62.25 4.73 62.33C4.62 62.43 3.84 62.34 3.67 62.1C3.5 61.86 3.19 60.41 3.31 60.09C3.42 59.77 4.05 57.65 4.29 57.47C4.52 57.29 5.36 56.77 5.83 55.61C6.2 54.7 6.08 53.28 6.24 52.48C3.68 52.46 0.43 52.72 0.01 49.1C-0.11 48.09 0.54 47.26 1.42 46.78ZM49.99 0L72.75 55.14C73.86 57.83 75.83 59.17 78.66 59.17L79.01 59.17L79.01 61.05L50.43 61.05L50.43 59.17C55.74 58.99 58.39 57.74 58.39 55.41C58.39 54.76 58.28 54.16 58.04 53.61L53.84 43.5L33.32 43.5L30.16 51.55C29.76 52.6 29.55 53.62 29.55 54.62C29.55 57.48 31.89 58.99 36.55 59.17L36.55 61.05L24.93 61.05C25.75 58.7 27.57 54.07 27.71 53.69C27.88 53.21 28.15 52.54 28.14 52.06C28.14 51.57 28.29 50.84 28.01 49.92C27.74 48.99 27.42 48.2 27.37 47.7C27.33 47.2 27.48 45.87 27.53 45.03C27.58 44.19 27.81 43.61 27.91 43.51C28.02 43.4 27.98 43.31 28.27 43.29C28.56 43.27 28.73 43.21 29.14 43.25C29.56 43.29 30.03 43.16 30.39 43.14C30.74 43.13 31.12 43.15 31.58 42.89C32.05 42.64 32.14 42.41 32.32 42.2C32.51 41.98 32.74 41.61 32.82 41.4C32.89 41.2 32.94 41.07 32.55 40.99C32.16 40.9 31.54 40.59 31.11 40.5C30.68 40.42 30.16 40.31 29.95 40.11C29.74 39.92 29.65 39.68 29.5 39.53C29.35 39.38 29.26 39.3 28.92 39.19C28.58 39.07 27.99 38.72 27.79 38.67C27.58 38.62 27.31 38.56 27.25 38.44C27.19 38.32 26.85 37.55 26.7 37.19C26.56 36.84 26.28 36.23 26.17 36.24C26.07 36.26 25.97 37.2 25.74 37.76C25.52 38.32 25.19 38.84 25.18 39.13C25.17 39.42 24.89 39.87 24.67 40.24C24.45 40.6 23.71 41.98 23.42 42.97C23.14 43.96 22.41 45.2 22.05 45.57C21.68 45.93 19.6 47.24 19.05 47.61C18.89 47.72 18.76 47.81 18.65 47.89L38.3 0L49.99 0ZM43.25 17.85L34.67 40L52.4 40L43.25 17.85Z" fill="#59443F" fill-opacity="1.000000" fill-rule="nonzero"/>
</svg>
