<svg width="141.279297" height="112.000000" viewBox="0 0 141.279 112" fill="none" xmlns="http://www.w3.org/2000/svg" xmlns:xlink="http://www.w3.org/1999/xlink">
	<desc>
			Created with Pixso.
	</desc>
	<defs/>
	<mask id="mask_376_1636" fill="white">
		<path id="ic / endocr" d="M6.71582 87.8125C9.81641 94.7832 18.7285 111 34.5068 111C37.8936 111.019 41.252 110.393 44.4043 109.155C44.7275 109.037 45.6377 108.484 46.666 107.787C50.749 105.462 57.1221 100.171 57.1221 88.9404C57.1221 86.1172 56.7197 82.9199 55.7773 79.2998C54.0879 76.1582 51.7178 73.4336 48.8389 71.3262C52.0762 70.251 55.2295 68.9355 58.2715 67.3916L58.5752 67.2383C62.2373 65.4258 66.8242 64.3486 71.3887 64.2051C75.374 64.5293 79.3145 65.5996 82.626 67.2383L82.9307 67.3916C85.9727 68.9355 89.125 70.251 92.3623 71.3262C89.4834 73.4336 87.1133 76.1582 85.4248 79.2998C84.4824 82.9199 84.0791 86.1172 84.0791 88.9404C84.0791 100.595 90.9424 105.853 94.9873 108.038C95.8564 108.614 96.5918 109.052 96.875 109.155C100.027 110.393 103.386 111.019 106.772 111C122.551 111 131.463 94.7832 134.563 87.8125C138.385 79.248 140.279 70.5332 140.279 62.2363C140.279 51.8379 137.304 42.0986 131.417 34.1406C129.188 31.126 126.631 29.0986 126.053 28.4287C122.733 25.6377 118.849 23.5996 114.667 22.4551C111.33 21.542 107.035 21.4404 105.844 21.5391C102.71 21.8115 95.665 24.6113 93.2344 28.5537C92.7969 29.2646 92.4434 30.0244 92.1836 30.8174C91.8066 32.0791 91.6201 33.376 91.6201 34.668C91.6201 36.9912 92.2217 39.2979 93.3984 41.3516C88.2129 40.3955 81.4209 37.9648 81.4209 31.6973L81.4209 6.11621C81.4209 3.29102 79.1309 1 76.3047 1L64.9746 1C62.1484 1 59.8584 3.29102 59.8584 6.11621L59.8584 31.6973C59.8584 37.9648 53.0664 40.3955 47.8809 41.3516C49.0576 39.2979 49.6592 36.9912 49.6592 34.668C49.6592 33.376 49.4727 32.0791 49.0957 30.8174C48.8359 30.0244 48.4824 29.2646 48.0449 28.5537C45.6143 24.6113 38.5693 21.8115 35.4355 21.5391C34.2441 21.4404 29.9492 21.542 26.6123 22.4551C22.4297 23.5996 18.5459 25.6377 15.2266 28.4287C14.6484 29.0986 12.0918 31.126 9.8623 34.1406C3.97559 42.0986 1 51.8379 1 62.2363C1 70.5332 2.89453 79.248 6.71582 87.8125ZM51.1846 97.8311C51.0518 98.0029 50.916 98.1816 50.7754 98.3652C49.2441 100.377 47.2217 103.033 43.7188 104.402C40.4209 105.69 37.2471 105.901 34.5068 105.884C21.7422 105.884 14.083 91.793 11.3896 85.7334C7.86621 77.8359 6.11816 69.8271 6.11816 62.2412C6.11816 52.9219 8.75488 44.2402 13.9756 37.1826C18.7119 30.291 26.6533 26.3135 35.0088 26.6475C38.667 26.957 43.1074 28.8789 44.2178 32.3809C44.374 33.0957 44.4502 33.8164 44.4502 34.5303C44.4502 37.6455 42.999 40.6367 40.4443 42.5596C39.8574 43.0547 39.5371 43.7754 39.5371 44.5146C39.5371 44.8086 39.5879 45.1064 39.6924 45.3936C40.0625 46.4023 41.0225 47.0723 42.0967 47.0723C43.0303 47.0723 64.9639 46.8701 64.9639 31.6973L64.9639 6.11621L76.3154 6.11621L76.3154 31.6973C76.3154 46.8701 98.249 47.0723 99.1826 47.0723C100.257 47.0723 101.217 46.4023 101.586 45.3936C101.691 45.1064 101.742 44.8086 101.742 44.5146C101.742 43.7754 101.422 43.0547 100.835 42.5596C98.2803 40.6367 96.8291 37.6455 96.8291 34.5303C96.8291 33.8164 96.9053 33.0957 97.0615 32.3809C98.1719 28.8789 102.612 26.957 106.271 26.6475C114.626 26.3135 122.567 30.291 127.304 37.1826C132.524 44.2402 135.16 52.9219 135.16 62.2412C135.16 69.8271 133.413 77.8359 129.89 85.7334C127.196 91.793 119.537 105.884 106.772 105.884C104.032 105.901 100.858 105.69 97.5605 104.402C94.0576 103.033 92.0352 100.377 90.5039 98.3652C90.3096 98.1113 90.124 97.8672 89.9434 97.6367C89.0508 95.2354 88.4541 92.5254 88.4541 89.5625C88.4541 87.1025 88.8652 84.4688 89.8604 81.6943C92.3623 77.2803 95.9473 74.3555 100.325 72.5615C101.255 72.1416 101.829 71.2197 101.829 70.2324C101.829 70.0557 101.811 69.8779 101.773 69.6992C101.523 68.5244 100.489 67.6807 99.2871 67.6729C99.2637 67.6602 94.6006 67.4912 85.2168 62.7998L84.9102 62.6465C80.4072 60.416 75.4941 59.3555 70.6006 59.4639C65.707 59.3555 60.7939 60.416 56.291 62.6465L55.9844 62.7998C46.6006 67.4912 41.9375 67.6602 41.9141 67.6729C40.7129 67.6807 39.6777 68.5244 39.4287 69.6992C39.3906 69.8779 39.3721 70.0557 39.3721 70.2324C39.3721 71.2197 39.9463 72.1416 40.876 72.5615C45.2549 74.3555 48.8389 77.2803 51.3408 81.6943C52.3359 84.4688 52.7471 87.1025 52.7471 89.5625C52.7471 92.6055 52.1182 95.3818 51.1846 97.8311ZM18.0811 40.2236C15.124 44.2627 13.0801 48.8955 12.0898 53.8018C12.0527 53.9795 12.0342 54.1562 12.0342 54.3301C12.0342 55.5146 12.8623 56.5781 14.0674 56.8311C14.2402 56.8662 14.417 56.8848 14.5938 56.8848C15.8066 56.8809 16.8506 56.0264 17.0938 54.8379C17.9365 50.6523 19.6758 46.6992 22.1914 43.25C24.7705 39.5117 28.9053 37.1455 33.4346 36.8135C34.8477 36.8135 35.9932 35.668 35.9932 34.2559C35.9932 32.8428 34.8477 31.6973 33.4346 31.6973C27.2734 32.0107 21.6035 35.1592 18.0811 40.2236ZM72.6484 52.1631L72.6484 41.9307C72.6484 40.5176 71.5029 39.3721 70.0908 39.3721C68.6777 39.3721 67.5322 40.5176 67.5322 41.9307L67.5322 52.1631C67.5322 53.5762 68.6777 54.7207 70.0908 54.7207C71.5029 54.7207 72.6484 53.5762 72.6484 52.1631ZM119.639 92.3066C122.596 88.2676 124.64 83.6348 125.63 78.7275C125.667 78.5508 125.685 78.374 125.685 78.1992C125.685 77.0156 124.857 75.9521 123.652 75.6992C123.479 75.6631 123.303 75.6455 123.125 75.6455C121.912 75.6484 120.869 76.5029 120.626 77.6914C119.783 81.877 118.044 85.8301 115.527 89.2803C112.948 93.0176 108.813 95.3848 104.285 95.7158C102.872 95.7158 101.727 96.8613 101.727 98.2744C101.727 99.6875 102.872 100.832 104.285 100.832C110.446 100.519 116.115 97.3711 119.639 92.3066Z" clip-rule="evenodd" fill="" fill-opacity="1.000000" fill-rule="evenodd"/>
	</mask>
	<path id="ic / endocr" d="M6.71582 87.8125C9.81641 94.7832 18.7285 111 34.5068 111C37.8936 111.019 41.252 110.393 44.4043 109.155C44.7275 109.037 45.6377 108.484 46.666 107.787C50.749 105.462 57.1221 100.171 57.1221 88.9404C57.1221 86.1172 56.7197 82.9199 55.7773 79.2998C54.0879 76.1582 51.7178 73.4336 48.8389 71.3262C52.0762 70.251 55.2295 68.9355 58.2715 67.3916L58.5752 67.2383C62.2373 65.4258 66.8242 64.3486 71.3887 64.2051C75.374 64.5293 79.3145 65.5996 82.626 67.2383L82.9307 67.3916C85.9727 68.9355 89.125 70.251 92.3623 71.3262C89.4834 73.4336 87.1133 76.1582 85.4248 79.2998C84.4824 82.9199 84.0791 86.1172 84.0791 88.9404C84.0791 100.595 90.9424 105.853 94.9873 108.038C95.8564 108.614 96.5918 109.052 96.875 109.155C100.027 110.393 103.386 111.019 106.772 111C122.551 111 131.463 94.7832 134.563 87.8125C138.385 79.248 140.279 70.5332 140.279 62.2363C140.279 51.8379 137.304 42.0986 131.417 34.1406C129.188 31.126 126.631 29.0986 126.053 28.4287C122.733 25.6377 118.849 23.5996 114.667 22.4551C111.33 21.542 107.035 21.4404 105.844 21.5391C102.71 21.8115 95.665 24.6113 93.2344 28.5537C92.7969 29.2646 92.4434 30.0244 92.1836 30.8174C91.8066 32.0791 91.6201 33.376 91.6201 34.668C91.6201 36.9912 92.2217 39.2979 93.3984 41.3516C88.2129 40.3955 81.4209 37.9648 81.4209 31.6973L81.4209 6.11621C81.4209 3.29102 79.1309 1 76.3047 1L64.9746 1C62.1484 1 59.8584 3.29102 59.8584 6.11621L59.8584 31.6973C59.8584 37.9648 53.0664 40.3955 47.8809 41.3516C49.0576 39.2979 49.6592 36.9912 49.6592 34.668C49.6592 33.376 49.4727 32.0791 49.0957 30.8174C48.8359 30.0244 48.4824 29.2646 48.0449 28.5537C45.6143 24.6113 38.5693 21.8115 35.4355 21.5391C34.2441 21.4404 29.9492 21.542 26.6123 22.4551C22.4297 23.5996 18.5459 25.6377 15.2266 28.4287C14.6484 29.0986 12.0918 31.126 9.8623 34.1406C3.97559 42.0986 1 51.8379 1 62.2363C1 70.5332 2.89453 79.248 6.71582 87.8125ZM51.1846 97.8311C51.0518 98.0029 50.916 98.1816 50.7754 98.3652C49.2441 100.377 47.2217 103.033 43.7188 104.402C40.4209 105.69 37.2471 105.901 34.5068 105.884C21.7422 105.884 14.083 91.793 11.3896 85.7334C7.86621 77.8359 6.11816 69.8271 6.11816 62.2412C6.11816 52.9219 8.75488 44.2402 13.9756 37.1826C18.7119 30.291 26.6533 26.3135 35.0088 26.6475C38.667 26.957 43.1074 28.8789 44.2178 32.3809C44.374 33.0957 44.4502 33.8164 44.4502 34.5303C44.4502 37.6455 42.999 40.6367 40.4443 42.5596C39.8574 43.0547 39.5371 43.7754 39.5371 44.5146C39.5371 44.8086 39.5879 45.1064 39.6924 45.3936C40.0625 46.4023 41.0225 47.0723 42.0967 47.0723C43.0303 47.0723 64.9639 46.8701 64.9639 31.6973L64.9639 6.11621L76.3154 6.11621L76.3154 31.6973C76.3154 46.8701 98.249 47.0723 99.1826 47.0723C100.257 47.0723 101.217 46.4023 101.586 45.3936C101.691 45.1064 101.742 44.8086 101.742 44.5146C101.742 43.7754 101.422 43.0547 100.835 42.5596C98.2803 40.6367 96.8291 37.6455 96.8291 34.5303C96.8291 33.8164 96.9053 33.0957 97.0615 32.3809C98.1719 28.8789 102.612 26.957 106.271 26.6475C114.626 26.3135 122.567 30.291 127.304 37.1826C132.524 44.2402 135.16 52.9219 135.16 62.2412C135.16 69.8271 133.413 77.8359 129.89 85.7334C127.196 91.793 119.537 105.884 106.772 105.884C104.032 105.901 100.858 105.69 97.5605 104.402C94.0576 103.033 92.0352 100.377 90.5039 98.3652C90.3096 98.1113 90.124 97.8672 89.9434 97.6367C89.0508 95.2354 88.4541 92.5254 88.4541 89.5625C88.4541 87.1025 88.8652 84.4688 89.8604 81.6943C92.3623 77.2803 95.9473 74.3555 100.325 72.5615C101.255 72.1416 101.829 71.2197 101.829 70.2324C101.829 70.0557 101.811 69.8779 101.773 69.6992C101.523 68.5244 100.489 67.6807 99.2871 67.6729C99.2637 67.6602 94.6006 67.4912 85.2168 62.7998L84.9102 62.6465C80.4072 60.416 75.4941 59.3555 70.6006 59.4639C65.707 59.3555 60.7939 60.416 56.291 62.6465L55.9844 62.7998C46.6006 67.4912 41.9375 67.6602 41.9141 67.6729C40.7129 67.6807 39.6777 68.5244 39.4287 69.6992C39.3906 69.8779 39.3721 70.0557 39.3721 70.2324C39.3721 71.2197 39.9463 72.1416 40.876 72.5615C45.2549 74.3555 48.8389 77.2803 51.3408 81.6943C52.3359 84.4688 52.7471 87.1025 52.7471 89.5625C52.7471 92.6055 52.1182 95.3818 51.1846 97.8311ZM18.0811 40.2236C15.124 44.2627 13.0801 48.8955 12.0898 53.8018C12.0527 53.9795 12.0342 54.1562 12.0342 54.3301C12.0342 55.5146 12.8623 56.5781 14.0674 56.8311C14.2402 56.8662 14.417 56.8848 14.5938 56.8848C15.8066 56.8809 16.8506 56.0264 17.0938 54.8379C17.9365 50.6523 19.6758 46.6992 22.1914 43.25C24.7705 39.5117 28.9053 37.1455 33.4346 36.8135C34.8477 36.8135 35.9932 35.668 35.9932 34.2559C35.9932 32.8428 34.8477 31.6973 33.4346 31.6973C27.2734 32.0107 21.6035 35.1592 18.0811 40.2236ZM72.6484 52.1631L72.6484 41.9307C72.6484 40.5176 71.5029 39.3721 70.0908 39.3721C68.6777 39.3721 67.5322 40.5176 67.5322 41.9307L67.5322 52.1631C67.5322 53.5762 68.6777 54.7207 70.0908 54.7207C71.5029 54.7207 72.6484 53.5762 72.6484 52.1631ZM119.639 92.3066C122.596 88.2676 124.64 83.6348 125.63 78.7275C125.667 78.5508 125.685 78.374 125.685 78.1992C125.685 77.0156 124.857 75.9521 123.652 75.6992C123.479 75.6631 123.303 75.6455 123.125 75.6455C121.912 75.6484 120.869 76.5029 120.626 77.6914C119.783 81.877 118.044 85.8301 115.527 89.2803C112.948 93.0176 108.813 95.3848 104.285 95.7158C102.872 95.7158 101.727 96.8613 101.727 98.2744C101.727 99.6875 102.872 100.832 104.285 100.832C110.446 100.519 116.115 97.3711 119.639 92.3066Z" clip-rule="evenodd" fill="#FFC59E" fill-opacity="1.000000" fill-rule="evenodd" mask="url(#mask_376_1636)"/>
	<path id="ic / endocr" d="M1.44824 75.1406Q2.91504 81.749 5.80273 88.2197L5.80176 88.2188Q7.34375 91.6855 9.29199 94.8955Q11.9844 99.3301 15.125 102.702Q19.0527 106.918 23.4795 109.242Q26.7085 110.938 30.1363 111.591Q32.2826 112 34.5068 112Q35.6974 112.007 36.8797 111.911Q38.3092 111.796 39.7266 111.532Q41.0523 111.285 42.3417 110.912Q43.5606 110.559 44.7471 110.095L44.7478 110.094Q45.0799 109.973 45.7891 109.544Q46.418 109.163 47.1984 108.635Q49.0764 107.561 50.6709 106.202Q52.4754 104.664 53.8582 102.812Q54.056 102.547 54.2451 102.275Q54.5832 101.79 54.8921 101.287Q56.2289 99.1095 57.0166 96.5947Q58.1221 93.0654 58.1221 88.9404Q58.1221 84.3379 56.7451 79.0479L56.7148 78.9316L56.6582 78.8262Q55.9906 77.5847 55.1928 76.4334Q54.413 75.3079 53.5088 74.2686Q52.5917 73.215 51.5695 72.2759Q51.235 71.9686 50.8891 71.6735Q52.4841 71.0965 54.0475 70.4433Q56.4223 69.4511 58.7236 68.2832L59.0254 68.1309Q61.6562 66.8291 64.873 66.0693Q65.8412 65.8407 66.8196 65.6713Q69.0653 65.2825 71.3649 65.2059Q72.8076 65.3259 74.2274 65.5759Q75.6243 65.8217 76.999 66.1934Q79.7812 66.9463 82.1826 68.1348L82.4805 68.2852Q84.6391 69.3804 86.863 70.3213Q88.5683 71.0428 90.3121 71.6735Q89.9662 71.9686 89.6317 72.2759Q88.6094 73.215 87.6924 74.2686Q86.7821 75.315 85.998 76.4487Q85.2067 77.593 84.5439 78.8262L84.4873 78.9316L84.457 79.0479Q83.0791 84.3379 83.0791 88.9404Q83.0791 93.2119 84.2646 96.8438Q85.0515 99.2563 86.3495 101.352Q86.7544 102.006 87.209 102.629Q87.3571 102.832 87.51 103.031Q88.9966 104.967 90.9463 106.548Q92.5715 107.864 94.4687 108.895Q95.9779 109.892 96.5315 110.094L96.5322 110.095Q97.7187 110.559 98.9376 110.912Q100.227 111.285 101.553 111.532Q102.81 111.766 104.077 111.883Q105.422 112.008 106.778 112Q108.975 112 111.096 111.6Q114.548 110.95 117.8 109.242Q122.227 106.918 126.154 102.702Q129.295 99.3301 131.987 94.8955Q133.936 91.6855 135.478 88.2188Q138.364 81.749 139.831 75.1406Q141.279 68.6133 141.279 62.2363Q141.279 58.2578 140.712 54.4316Q140.142 50.5918 139.01 46.9746Q137.869 43.3291 136.178 39.9756Q134.939 37.5195 133.421 35.2506Q132.842 34.3846 132.222 33.5459Q131.122 32.0605 129.687 30.5684Q129.155 30.0156 128.544 29.4277Q128.192 29.0898 127.602 28.54Q126.932 27.916 126.81 27.7754L126.758 27.7148L126.696 27.6631Q125.403 26.5753 124.007 25.6397Q122.628 24.7147 121.148 23.9385Q119.655 23.1555 118.095 22.542Q116.546 21.9326 114.931 21.4902Q112.632 20.8613 109.528 20.6201Q108.353 20.5293 107.271 20.5117Q106.31 20.4971 105.761 20.543Q104.426 20.6592 102.59 21.2432Q100.684 21.8496 98.8281 22.7754Q96.75 23.8135 95.1738 25.0449Q93.3398 26.4775 92.3838 28.0293Q92.0284 28.6055 91.744 29.2149Q91.451 29.8428 91.2334 30.5059L91.2285 30.5186L91.2246 30.5312Q90.9209 31.5484 90.7698 32.5878Q90.6201 33.617 90.6201 34.668Q90.6201 35.6061 90.7399 36.5286Q90.8602 37.4557 91.1016 38.3672Q91.315 39.1737 91.6171 39.9442Q90.5886 39.6867 89.6582 39.373Q87.5293 38.6562 86.0068 37.6758Q84.2998 36.5762 83.4062 35.1777Q83.0895 34.6817 82.8745 34.1449Q82.4209 33.0119 82.4209 31.6973L82.4209 6.11621Q82.4209 5.4426 82.2798 4.79995Q82.1606 4.25658 81.9404 3.73535Q81.7205 3.21594 81.4152 2.75273Q81.0754 2.23705 80.6299 1.79102Q80.1904 1.35151 79.6826 1.01513Q79.2132 0.704245 78.6855 0.481445Q78.1732 0.264433 77.639 0.145239Q76.988 0 76.3047 0L64.9746 0Q64.2913 0 63.6403 0.145239Q63.1061 0.264433 62.5938 0.481445Q62.0661 0.704246 61.5967 1.01513Q61.0889 1.35151 60.6494 1.79102Q60.2039 2.23705 59.8641 2.75273Q59.5588 3.21594 59.3389 3.73535Q59.1187 4.25658 58.9995 4.79995Q58.8584 5.4426 58.8584 6.11621L58.8584 31.6973Q58.8584 33.0119 58.4048 34.1449Q58.1898 34.6817 57.873 35.1777Q56.9795 36.5762 55.2725 37.6758Q53.75 38.6562 51.6201 39.373Q50.6903 39.6867 49.6623 39.9442Q49.9643 39.1737 50.1777 38.3672Q50.4191 37.4557 50.5394 36.5286Q50.6592 35.6061 50.6592 34.668Q50.6592 33.6203 50.5102 32.5943Q50.3589 31.5516 50.0537 30.5312L50.0508 30.5186L50.0459 30.5059Q49.8283 29.8428 49.5353 29.2149Q49.2509 28.6055 48.8955 28.0293Q47.9395 26.4775 46.1055 25.0449Q44.5293 23.8135 42.4512 22.7754Q40.5957 21.8496 38.6895 21.2432Q36.8535 20.6592 35.5225 20.543Q34.9697 20.4971 34.0078 20.5117Q32.9268 20.5293 31.751 20.6201Q28.6475 20.8613 26.3486 21.4902Q24.7335 21.9326 23.1842 22.542Q21.6242 23.1555 20.1309 23.9385Q18.6516 24.7147 17.2721 25.6397Q15.8766 26.5753 14.583 27.6631L14.5215 27.7148L14.4688 27.7754Q14.3477 27.916 13.6777 28.54Q13.0869 29.0898 12.7354 29.4277Q12.124 30.0156 11.5928 30.5684Q10.1572 32.0605 9.05762 33.5459Q8.44779 34.3706 7.87731 35.2216Q6.34751 37.5038 5.10059 39.9756Q3.41016 43.3291 2.26953 46.9746Q1.1377 50.5918 0.567383 54.4316Q0 58.2578 0 62.2363Q0 68.6133 1.44824 75.1406ZM49.1531 41.0923C48.7216 41.189 48.2961 41.275 47.8809 41.3516C48.0927 40.9818 48.286 40.6038 48.4604 40.219C49.2547 38.4667 49.6592 36.5729 49.6592 34.668C49.6592 33.376 49.4727 32.0791 49.0957 30.8174C48.8359 30.0244 48.4824 29.2646 48.0449 28.5537C45.6143 24.6113 38.5693 21.8115 35.4355 21.5391C34.2441 21.4404 29.9492 21.542 26.6123 22.4551C22.4297 23.5996 18.5459 25.6377 15.2266 28.4287C14.6484 29.0986 12.0918 31.126 9.8623 34.1406C3.97559 42.0986 1 51.8379 1 62.2363C1 70.5332 2.89453 79.248 6.71582 87.8125C9.81641 94.7832 18.7285 111 34.5068 111C37.8936 111.019 41.252 110.393 44.4043 109.155C44.7275 109.037 45.6377 108.484 46.666 107.787C50.749 105.462 57.1221 100.171 57.1221 88.9404C57.1221 86.1172 56.7197 82.9199 55.7773 79.2998C54.2779 76.5116 52.2424 74.0518 49.7908 72.0605C49.4801 71.8081 49.1627 71.5632 48.8389 71.3262C49.221 71.1993 49.6019 71.069 49.9817 70.9354C52.819 69.9373 55.5886 68.7533 58.2715 67.3916L58.5752 67.2383C62.2373 65.4258 66.8242 64.3486 71.3887 64.2051C75.374 64.5293 79.3145 65.5996 82.626 67.2383L82.9307 67.3916C85.6136 68.7533 88.3823 69.9372 91.2195 70.9354C91.5992 71.069 91.9802 71.1993 92.3623 71.3262C92.0385 71.5632 91.7211 71.8081 91.4104 72.0605C88.9588 74.0518 86.9234 76.5116 85.4248 79.2998C84.4824 82.9199 84.0791 86.1172 84.0791 88.9404C84.0791 100.595 90.9424 105.853 94.9873 108.038C95.8564 108.614 96.5918 109.052 96.875 109.155C100.027 110.393 103.386 111.019 106.772 111C122.551 111 131.463 94.7832 134.563 87.8125C138.385 79.248 140.279 70.5332 140.279 62.2363C140.279 51.8379 137.304 42.0986 131.417 34.1406C129.188 31.126 126.631 29.0986 126.053 28.4287C122.733 25.6377 118.849 23.5996 114.667 22.4551C111.33 21.542 107.035 21.4404 105.844 21.5391C102.71 21.8115 95.665 24.6113 93.2344 28.5537C92.7969 29.2646 92.4434 30.0244 92.1836 30.8174C91.8066 32.0791 91.6201 33.376 91.6201 34.668C91.6201 36.5729 92.0246 38.4667 92.8189 40.219C92.9933 40.6038 93.1866 40.9818 93.3984 41.3516C92.9832 41.275 92.5577 41.189 92.1262 41.0923C87.1688 39.9817 81.4209 37.463 81.4209 31.6973L81.4209 6.11621C81.4209 3.29102 79.1309 1 76.3047 1L64.9746 1C62.1484 1 59.8584 3.29102 59.8584 6.11621L59.8584 31.6973C59.8584 37.463 54.1105 39.9817 49.1531 41.0923ZM13.9756 37.1826C8.75488 44.2402 6.11816 52.9219 6.11816 62.2412C6.11816 69.8271 7.86621 77.8359 11.3896 85.7334C14.083 91.793 21.7422 105.884 34.5068 105.884C37.2471 105.901 40.4209 105.69 43.7188 104.402C47.2217 103.033 49.2441 100.377 50.7754 98.3652C50.916 98.1816 51.0518 98.0029 51.1846 97.8311C52.1182 95.3818 52.7471 92.6055 52.7471 89.5625C52.7471 87.1025 52.3359 84.4688 51.3408 81.6943C48.8389 77.2803 45.2549 74.3555 40.876 72.5615C39.9463 72.1416 39.3721 71.2197 39.3721 70.2324C39.3721 70.0557 39.3906 69.8779 39.4287 69.6992C39.6777 68.5244 40.7129 67.6807 41.9141 67.6729C41.9375 67.6602 46.6006 67.4912 55.9844 62.7998L56.291 62.6465C60.7939 60.416 65.707 59.3555 70.6006 59.4639C75.4941 59.3555 80.4072 60.416 84.9102 62.6465L85.2168 62.7998C94.6006 67.4912 99.2637 67.6602 99.2871 67.6729C100.489 67.6807 101.523 68.5244 101.773 69.6992Q101.829 69.9673 101.829 70.2324C101.829 71.2197 101.255 72.1416 100.325 72.5615C95.9473 74.3555 92.3623 77.2803 89.8604 81.6943C88.8652 84.4688 88.4541 87.1025 88.4541 89.5625C88.4541 92.5254 89.0508 95.2354 89.9434 97.6367C90.124 97.8672 90.3096 98.1113 90.5039 98.3652C92.0352 100.377 94.0576 103.033 97.5605 104.402C100.858 105.69 104.032 105.901 106.772 105.884C119.537 105.884 127.196 91.793 129.89 85.7334C133.413 77.8359 135.16 69.8271 135.16 62.2412C135.16 52.9219 132.524 44.2402 127.304 37.1826C122.567 30.291 114.626 26.3135 106.271 26.6475C102.612 26.957 98.1719 28.8789 97.0615 32.3809C96.9053 33.0957 96.8291 33.8164 96.8291 34.5303C96.8291 37.6455 98.2803 40.6367 100.835 42.5596C101.422 43.0547 101.742 43.7754 101.742 44.5146C101.742 44.8086 101.691 45.1064 101.586 45.3936C101.217 46.4023 100.257 47.0723 99.1826 47.0723C98.249 47.0723 76.3154 46.8701 76.3154 31.6973L76.3154 6.11621L64.9639 6.11621L64.9639 31.6973C64.9639 46.8701 43.0303 47.0723 42.0967 47.0723C41.0225 47.0723 40.0625 46.4023 39.6924 45.3936C39.5879 45.1064 39.5371 44.8086 39.5371 44.5146C39.5371 43.7754 39.8574 43.0547 40.4443 42.5596C42.999 40.6367 44.4502 37.6455 44.4502 34.5303C44.4502 33.8164 44.374 33.0957 44.2178 32.3809C43.1074 28.8789 38.667 26.957 35.0088 26.6475C26.6533 26.3135 18.7119 30.291 13.9756 37.1826ZM34.9489 27.6467Q33.3948 27.5859 31.86 27.7294Q30.4601 27.8603 29.0762 28.1611Q27.6784 28.4653 26.338 28.9336Q24.9288 29.426 23.583 30.0996Q22.2344 30.7752 20.9937 31.611Q19.8185 32.4026 18.7402 33.3379Q17.676 34.2613 16.7369 35.298Q15.6907 36.4532 14.7998 37.749L14.79 37.7627L14.7793 37.7764Q13.8882 38.9811 13.0989 40.2492Q10.5338 44.3705 9.04395 49.1611Q7.11816 55.3525 7.11816 62.2412Q7.11816 67.8623 8.40918 73.6533Q9.71973 79.5361 12.3027 85.3271Q13.5938 88.2305 15.2012 90.9258Q17.4043 94.6191 19.915 97.4121Q22.999 100.843 26.373 102.712Q29.2503 104.306 32.2908 104.73Q33.3915 104.884 34.5137 104.884Q36.8848 104.899 38.7686 104.642Q41.2109 104.309 43.3545 103.471Q45.4795 102.641 47.2949 100.902Q48.0059 100.222 48.751 99.3262Q49.1963 98.7891 49.9805 97.7598L49.9814 97.7578L50.3017 97.3388Q51.6068 93.8513 51.7335 90.3216Q51.7471 89.9423 51.7471 89.5625Q51.7471 89.4631 51.7461 89.3637Q51.7119 85.7323 50.4281 82.1126Q48.8548 79.3614 46.63 77.3204Q46.3991 77.1085 46.1611 76.9043Q43.7158 74.8057 40.4971 73.4873L40.4805 73.4805L40.4639 73.4727Q40.1992 73.3533 39.9605 73.1948Q39.7677 73.0667 39.5918 72.9131Q39.409 72.7535 39.2507 72.5724Q39.0768 72.3734 38.9326 72.1484Q38.7933 71.9302 38.6879 71.6966Q38.5872 71.4735 38.5176 71.2363Q38.4395 70.9724 38.4034 70.7028Q38.3721 70.4697 38.3721 70.2324Q38.3721 70.0551 38.3896 69.8796Q38.4091 69.6848 38.4502 69.4922Q38.5183 69.1726 38.6408 68.8754Q38.75 68.6105 38.9023 68.3633Q39.0564 68.1131 39.2467 67.8946Q39.445 67.6669 39.6826 67.4736Q39.9321 67.2702 40.2093 67.1169Q40.4497 66.9839 40.7109 66.8887Q40.9884 66.7872 41.2748 66.7334Q41.5653 66.6788 41.865 66.6734Q41.8684 66.6731 41.8721 66.6729Q42.3213 66.6367 42.918 66.5342Q44.0957 66.332 45.5293 65.9297Q47.499 65.377 49.7324 64.5039Q52.5 63.4238 55.5371 61.9053L55.8477 61.75Q57.6165 60.8738 59.4658 60.2281Q61.238 59.6093 63.084 59.2021Q64.9274 58.7952 66.7928 58.6105Q68.6854 58.423 70.6006 58.4644Q72.5501 58.4223 74.4756 58.6171Q76.3072 58.8025 78.1172 59.2021Q79.8906 59.5933 81.5967 60.1802Q83.5199 60.8417 85.3574 61.752L85.6641 61.9053Q88.7012 63.4238 91.4688 64.5039Q93.7031 65.377 95.6719 65.9297Q97.1064 66.332 98.2832 66.5342Q98.8799 66.6367 99.3291 66.6729Q99.3328 66.6731 99.3362 66.6734Q99.6359 66.6788 99.9264 66.7334Q100.213 66.7872 100.49 66.8887Q100.766 66.9891 101.018 67.1315Q101.281 67.2798 101.519 67.4736Q101.756 67.6669 101.954 67.8946Q102.145 68.1131 102.299 68.3633Q102.455 68.6159 102.566 68.887Q102.685 69.1789 102.751 69.4922Q102.792 69.6848 102.812 69.8796Q102.829 70.0551 102.829 70.2324Q102.829 70.4697 102.798 70.7028Q102.762 70.9724 102.684 71.2363Q102.614 71.4735 102.513 71.6966Q102.408 71.9302 102.269 72.1484Q102.124 72.3734 101.95 72.5724Q101.792 72.7535 101.609 72.9131Q101.426 73.0734 101.224 73.2059Q100.993 73.3575 100.738 73.4727L100.722 73.4805L100.705 73.4873Q97.4854 74.8057 95.04 76.9043Q94.8021 77.1085 94.5711 77.3204Q92.3463 79.3614 90.7731 82.1126Q89.4892 85.7323 89.455 89.3637Q89.4541 89.4631 89.4541 89.5625Q89.4541 89.9393 89.4675 90.3155Q89.5897 93.7498 90.8276 97.1444Q91.0041 97.3728 91.2988 97.7598Q92.083 98.7891 92.5283 99.3262Q93.2734 100.222 93.9844 100.902Q95.7998 102.641 97.9248 103.471Q100.068 104.309 102.511 104.642Q104.395 104.899 106.772 104.884Q107.867 104.884 108.941 104.737Q112.005 104.319 114.906 102.712Q118.28 100.843 121.364 97.4121Q123.875 94.6191 126.078 90.9258Q127.686 88.2305 128.977 85.3252Q131.56 79.5352 132.87 73.6533Q134.16 67.8623 134.16 62.2412Q134.16 55.3525 132.235 49.1611Q130.746 44.3705 128.18 40.2492Q127.391 38.9811 126.5 37.7764L126.489 37.7627L126.479 37.749Q125.589 36.4532 124.542 35.298Q123.603 34.2613 122.539 33.3379Q121.461 32.4026 120.286 31.611Q119.045 30.7752 117.696 30.0996Q116.35 29.426 114.941 28.9336Q113.601 28.4653 112.203 28.1611Q110.819 27.8603 109.419 27.7294Q107.884 27.5859 106.33 27.6467Q105.028 27.7595 103.727 28.1416Q102.347 28.5459 101.2 29.1895Q99.9902 29.8672 99.1865 30.7314Q98.3636 31.6176 98.0282 32.6406Q97.9175 33.1608 97.8683 33.6867Q97.8291 34.1066 97.8291 34.5303Q97.8291 35.0259 97.8829 35.5157Q97.9427 36.0613 98.0693 36.5996Q98.1894 37.1107 98.3664 37.6012Q98.5408 38.0845 98.7705 38.5479Q99.009 39.0299 99.3008 39.4772Q99.5776 39.9017 99.9023 40.2949Q100.208 40.6651 100.55 40.9991Q100.967 41.4069 101.437 41.7607L101.459 41.7773L101.48 41.7949Q101.788 42.0548 102.024 42.368Q102.255 42.6729 102.418 43.0283Q102.581 43.3843 102.662 43.758Q102.742 44.1276 102.742 44.5146Q102.742 44.819 102.692 45.1147Q102.637 45.4309 102.525 45.7373Q102.424 46.0137 102.281 46.2665Q102.155 46.4896 101.996 46.6943Q101.844 46.8903 101.668 47.0617Q101.461 47.2637 101.221 47.4316Q101.002 47.5842 100.766 47.7014Q100.523 47.822 100.262 47.9053Q100.004 47.9871 99.7394 48.0288Q99.4645 48.0723 99.1826 48.0723Q98.6572 48.0723 97.8809 48.0322Q96.5215 47.9629 95.0996 47.7969Q93.1621 47.5703 91.332 47.1865Q89.0635 46.7119 87.0703 46.0186Q81.9727 44.2471 79.0361 41.1943Q77.6139 39.7155 76.7323 37.9646Q76.5176 37.5382 76.335 37.0957Q75.3154 34.625 75.3154 31.6973L75.3154 7.11621L65.9639 7.11621L65.9639 31.6973Q65.9639 34.625 64.9443 37.0957Q64.7617 37.5382 64.547 37.9646Q63.6654 39.7155 62.2432 41.1943Q59.3057 44.2471 54.209 46.0186Q52.2158 46.7119 49.9473 47.1865Q48.1172 47.5703 46.1797 47.7969Q44.7578 47.9629 43.3984 48.0322Q42.6221 48.0723 42.0977 48.0723Q41.8148 48.0723 41.5389 48.0287Q41.2746 47.987 41.0166 47.9053Q40.7654 47.8252 40.5311 47.7104Q40.2855 47.5901 40.0586 47.4316Q39.8183 47.2637 39.6111 47.0617Q39.4352 46.8903 39.2832 46.6943Q39.1243 46.4896 38.998 46.2665Q38.855 46.0137 38.7539 45.7373Q38.6419 45.4309 38.5877 45.1147Q38.5371 44.819 38.5371 44.5146Q38.5371 44.1276 38.6173 43.758Q38.6983 43.3843 38.8613 43.0283Q39.0246 42.6729 39.2549 42.368Q39.4915 42.0548 39.7988 41.7949L39.8203 41.7773L39.8428 41.7607Q40.3126 41.4069 40.7295 40.9991Q41.071 40.6651 41.377 40.2949Q41.7017 39.9017 41.9785 39.4772Q42.2703 39.0299 42.5088 38.5479Q42.7385 38.0845 42.9129 37.6012Q43.0899 37.1107 43.21 36.5996Q43.3366 36.0613 43.3964 35.5157Q43.4502 35.0259 43.4502 34.5303Q43.4502 34.1066 43.4109 33.6867Q43.3618 33.1608 43.2511 32.6406Q42.9157 31.6176 42.0918 30.7314Q41.2891 29.8672 40.0791 29.1895Q38.9326 28.5459 37.5527 28.1416Q36.2518 27.7595 34.9489 27.6467ZM17.2721 39.6347Q17.9728 38.6299 18.7799 37.7195Q19.5561 36.844 20.4307 36.0557Q21.2712 35.2982 22.183 34.6393Q23.1897 33.9119 24.2832 33.3047Q25.3382 32.7186 26.4461 32.2602Q27.5256 31.8136 28.6553 31.4883Q29.7624 31.1696 30.8909 30.9751Q32.1246 30.7625 33.3838 30.6982L33.4092 30.6973L33.4346 30.6973Q33.8258 30.6973 34.1991 30.7792Q34.5162 30.8488 34.8203 30.9775Q35.1263 31.1067 35.3984 31.2869Q35.6943 31.4829 35.9502 31.7393Q36.2082 31.9973 36.4053 32.2956Q36.5842 32.5663 36.7129 32.8701Q36.8416 33.1742 36.9112 33.4913Q36.9932 33.8646 36.9932 34.2559Q36.9932 34.6404 36.9138 35.0079Q36.844 35.3309 36.7129 35.6406Q36.5842 35.9445 36.4053 36.2152Q36.2082 36.5135 35.9502 36.7715Q35.6943 37.0279 35.3984 37.2239Q35.1263 37.4041 34.8203 37.5332Q34.5162 37.6619 34.1991 37.7315Q33.8433 37.8096 33.4712 37.8133Q32.6768 37.874 31.8993 38.0229Q31.1538 38.1657 30.4238 38.3896Q29.6672 38.622 28.946 38.9359Q28.2459 39.2406 27.5791 39.6221Q26.8768 40.0241 26.2296 40.501Q25.6286 40.9438 25.0752 41.4512Q24.5166 41.9633 24.0193 42.5293Q23.4811 43.1418 23.0146 43.8174L23.0068 43.8281L23 43.8389Q22.0862 45.0919 21.3174 46.4283Q20.5522 47.7583 19.9307 49.1709Q19.3255 50.5463 18.87 51.9696Q18.3877 53.477 18.0732 55.0381Q18.0057 55.3682 17.8804 55.6747Q17.7737 55.9358 17.625 56.1797Q17.4737 56.4271 17.2871 56.6441Q17.0847 56.8794 16.8408 57.0791Q16.5937 57.2815 16.3191 57.4347Q16.0729 57.5721 15.8047 57.6699Q15.5626 57.7582 15.313 57.8102Q14.9604 57.8836 14.5928 57.8848Q14.5241 57.8846 14.4556 57.8818Q14.1575 57.8699 13.8613 57.8096Q13.5143 57.7365 13.1944 57.5999Q12.9454 57.4935 12.7129 57.3486Q12.4733 57.1997 12.2629 57.0172Q12.0221 56.8084 11.8193 56.5557Q11.6284 56.3182 11.4825 56.0557Q11.3405 55.8 11.2412 55.5205Q11.1326 55.2172 11.081 54.9044Q11.0342 54.6211 11.0342 54.3301Q11.0342 54.0326 11.083 53.7434Q11.0948 53.6737 11.1094 53.6045Q11.4965 51.6849 12.0881 49.8305Q12.6636 48.0265 13.4326 46.2842Q14.2143 44.5127 15.1774 42.846Q16.1351 41.1885 17.2721 39.6347ZM18.0811 40.2236C15.124 44.2627 13.0801 48.8955 12.0898 53.8018C12.0527 53.9795 12.0342 54.1562 12.0342 54.3301C12.0342 55.5146 12.8623 56.5781 14.0674 56.8311C14.2402 56.8662 14.417 56.8848 14.5938 56.8848C15.8066 56.8809 16.8506 56.0264 17.0938 54.8379C17.9365 50.6523 19.6758 46.6992 22.1914 43.25C24.7705 39.5117 28.9053 37.1455 33.4346 36.8135C34.8477 36.8135 35.9932 35.668 35.9932 34.2559C35.9932 32.8428 34.8477 31.6973 33.4346 31.6973C27.2734 32.0107 21.6035 35.1592 18.0811 40.2236ZM73.5691 52.9151Q73.6484 52.5477 73.6484 52.1631L73.6484 41.9307Q73.6484 41.5394 73.5665 41.1661Q73.4969 40.849 73.3682 40.5449Q73.2409 40.2433 73.064 39.9744Q72.8662 39.6738 72.6064 39.4141Q72.3517 39.1598 72.0578 38.9647Q71.7837 38.7829 71.4756 38.6523Q71.1658 38.5212 70.8428 38.4514Q70.4754 38.3721 70.0908 38.3721Q69.6996 38.3721 69.3263 38.454Q69.0092 38.5236 68.7051 38.6523Q68.3969 38.7829 68.1229 38.9647Q67.8289 39.1598 67.5742 39.4141Q67.3144 39.6738 67.1167 39.9744Q66.9398 40.2433 66.8125 40.5449Q66.6838 40.849 66.6142 41.1661Q66.5322 41.5394 66.5322 41.9307L66.5322 52.1631Q66.5322 52.5477 66.6116 52.9151Q66.6814 53.2381 66.8125 53.5479Q66.9398 53.8494 67.1167 54.1184Q67.3144 54.4189 67.5742 54.6787Q67.8322 54.9367 68.1305 55.1338Q68.4012 55.3127 68.7051 55.4414Q69.0068 55.5687 69.3213 55.638Q69.6969 55.7207 70.0908 55.7207Q70.478 55.7207 70.8477 55.6405Q71.1682 55.5711 71.4756 55.4414Q71.7794 55.3127 72.0502 55.1338Q72.3484 54.9367 72.6064 54.6787Q72.8662 54.4189 73.064 54.1184Q73.2409 53.8494 73.3682 53.5479Q73.4993 53.2381 73.5691 52.9151ZM72.6484 41.9307L72.6484 52.1631C72.6484 53.5762 71.5029 54.7207 70.0908 54.7207C68.6777 54.7207 67.5322 53.5762 67.5322 52.1631L67.5322 41.9307C67.5322 40.5176 68.6777 39.3721 70.0908 39.3721C71.5029 39.3721 72.6484 40.5176 72.6484 41.9307ZM119.639 92.3066C122.596 88.2676 124.64 83.6348 125.63 78.7275C125.667 78.5508 125.685 78.374 125.685 78.1992C125.685 77.0156 124.857 75.9521 123.652 75.6992C123.479 75.6631 123.303 75.6455 123.125 75.6455C121.912 75.6484 120.869 76.5029 120.626 77.6914C119.783 81.877 118.044 85.8301 115.527 89.2803C112.948 93.0176 108.813 95.3848 104.285 95.7158C102.872 95.7158 101.727 96.8613 101.727 98.2744C101.727 99.6875 102.872 100.832 104.285 100.832C110.446 100.519 116.115 97.3711 119.639 92.3066ZM104.249 94.716Q105.042 94.6559 105.817 94.5077Q106.564 94.365 107.296 94.1406Q108.043 93.9111 108.756 93.602Q109.465 93.2941 110.141 92.9072Q110.815 92.5211 111.438 92.0659Q112.067 91.6071 112.645 91.0781Q113.203 90.566 113.7 90Q114.239 89.3875 114.705 88.7119L114.712 88.7012L114.72 88.6904Q115.624 87.4517 116.385 86.1311Q117.161 84.7876 117.789 83.3594Q118.386 82.0028 118.837 80.5995Q119.328 79.073 119.646 77.4912Q119.711 77.1764 119.828 76.8826Q119.938 76.6068 120.095 76.3496Q120.25 76.0965 120.441 75.8752Q120.64 75.6456 120.878 75.4502Q121.119 75.2531 121.386 75.1025Q121.639 74.9601 121.915 74.8594Q122.158 74.771 122.408 74.7191Q122.76 74.6461 123.127 74.6455Q123.151 74.6455 123.174 74.6458Q123.517 74.6503 123.858 74.7197Q124.191 74.7898 124.498 74.9183Q124.762 75.0281 125.007 75.1807Q125.25 75.3324 125.463 75.5185Q125.7 75.7253 125.9 75.9746Q126.091 76.212 126.237 76.4742Q126.379 76.7297 126.479 77.0088Q126.586 77.3096 126.637 77.6196Q126.685 77.9055 126.685 78.1992Q126.685 78.5281 126.626 78.8461Q126.619 78.886 126.61 78.9258Q126.228 80.8184 125.647 82.6481Q125.067 84.4786 124.287 86.2461Q123.504 88.0217 122.538 89.6918Q121.587 91.3354 120.46 92.8768L120.46 92.877Q119.738 93.9145 118.903 94.8512Q118.143 95.7042 117.289 96.4736Q116.416 97.2608 115.466 97.9414Q114.491 98.6396 113.437 99.2256Q112.39 99.8067 111.291 100.262Q110.203 100.713 109.064 101.041Q107.957 101.36 106.829 101.554Q105.595 101.767 104.336 101.831L104.311 101.832L104.285 101.832Q103.891 101.832 103.516 101.749Q103.201 101.68 102.899 101.553Q102.596 101.424 102.325 101.245Q102.027 101.048 101.769 100.79Q101.509 100.53 101.311 100.23Q101.134 99.9608 101.007 99.6592Q100.876 99.3494 100.806 99.0264Q100.727 98.659 100.727 98.2744Q100.727 97.8831 100.809 97.5099Q100.878 97.1928 101.007 96.8887Q101.136 96.5827 101.316 96.3106Q101.512 96.0147 101.769 95.7588Q102.027 95.5008 102.325 95.3037Q102.596 95.1248 102.899 94.9961Q103.204 94.8674 103.521 94.7978Q103.877 94.7196 104.249 94.716Z" clip-rule="evenodd" fill="#FFC59E" fill-opacity="1.000000" fill-rule="evenodd"/>
</svg>
