<svg width="88.250000" height="91.000000" viewBox="0 0 88.25 91" fill="none" xmlns="http://www.w3.org/2000/svg" xmlns:xlink="http://www.w3.org/1999/xlink">
	<desc>
			Created with Pixso.
	</desc>
	<defs/>
	<path id="Vector" d="M47.61 16.81C46.59 19.46 46.04 22.27 46.04 24.59C46.04 26.99 46.57 29.59 47.6 31.76C48.96 34.59 51.19 36.7 54.29 36.7C55.67 36.7 56.94 36.31 58.1 35.64C60.75 34.11 62.8 31.1 64.13 27.82C65.24 25.05 65.84 22.08 65.84 19.65C65.84 14.15 63.09 7.54 57.59 7.54C52.97 7.54 49.49 11.93 47.61 16.81ZM44.01 8.6Q47.6 3.18 52.5 1.41Q54.89 0.54 57.59 0.54Q60.77 0.54 63.37 1.76Q67.21 3.55 69.82 7.98Q70.41 8.99 70.88 10.05Q72.84 14.41 72.84 19.65Q72.84 21.65 72.56 23.62Q72.51 23.95 72.46 24.28Q73.26 24.2 74.09 24.2Q76.95 24.2 79.34 25.26Q82.72 26.76 85.14 30.41Q85.99 31.68 86.61 33.06Q88.25 36.71 88.25 41.09Q88.25 43.74 87.75 46.29Q86.75 51.36 83.79 56.04Q79.76 62.41 74.2 64.32Q74.02 64.39 73.83 64.45Q76.7 70.71 76.7 76.84Q76.7 81.54 74.52 84.78Q72.93 87.16 70.17 88.75Q66.28 91 60.34 91Q55.87 91 49.04 88.19Q45.15 86.59 43.84 86.59Q42.2 86.59 37.98 88.24Q30.93 91 26.25 91Q20.32 91 16.41 88.18Q16.38 88.16 16.35 88.14Q14.39 86.71 13.14 84.81Q11 81.53 11 76.84Q11 70.6 13.96 64.23Q8.72 62.28 4.71 56.13Q0.97 50.4 0.2 44.3Q0 42.71 0 41.09Q0 35.26 2.55 30.95Q2.67 30.75 2.79 30.56Q4.89 27.22 7.92 25.63Q10.65 24.2 14.15 24.2Q14.59 24.2 15.03 24.22Q14.66 21.56 14.85 18.83Q14.9 13.74 16.81 9.5Q17.28 8.44 17.87 7.43Q20.48 3 24.32 1.21Q26.92 0 30.09 0Q32.84 0 35.27 0.89Q40.36 2.76 44.01 8.6ZM21.84 19.09C21.66 21.57 22.06 24.43 22.98 27.12C24.33 31.06 26.81 34.63 30.19 36.05C31.18 36.46 32.25 36.7 33.4 36.7C36.5 36.7 38.73 34.59 40.09 31.76C41.12 29.59 41.65 26.99 41.65 24.59C41.65 22.17 41.14 19.37 40.19 16.72C38.34 11.56 34.82 7 30.09 7C24.59 7 21.84 13.59 21.84 19.09ZM43.84 38.79Q43.22 39.55 42.53 40.19Q42.85 40.17 43.18 40.16Q43.51 40.15 43.84 40.15Q44.18 40.15 44.51 40.16Q44.83 40.17 45.16 40.19Q44.47 39.55 43.84 38.79ZM55.29 52.04C51.5 49.05 47.47 47.15 43.84 47.15C40.42 47.15 36.63 48.85 33.02 51.56C28.56 54.92 24.39 59.82 21.58 64.95C19.36 68.99 18 73.17 18 76.84C18 82.34 21.84 84 26.25 84C32.84 84 37.79 79.59 43.84 79.59C49.34 79.59 54.29 84 60.34 84C64.75 84 69.7 82.9 69.7 76.84C69.7 73.14 68.3 68.91 66.05 64.83C63.37 59.99 59.48 55.35 55.29 52.04ZM26.24 47.98C26.2 45.84 25.68 43.47 24.8 41.2C23.24 37.21 20.56 33.54 17.37 31.98C16.34 31.48 15.26 31.2 14.15 31.2C9.2 31.2 7 36.15 7 41.09C7 47.68 11.66 56.61 17.56 57.97C18.07 58.08 18.58 58.15 19.09 58.15C24.04 58.15 26.25 53.2 26.25 48.25C26.25 48.16 26.24 48.07 26.24 47.98ZM62 48.49C62.07 53.36 64.28 58.15 69.15 58.15C69.5 58.15 69.85 58.12 70.2 58.07C76.78 57.16 81.25 47.89 81.25 41.09C81.25 36.15 78.5 31.2 74.09 31.2C72.51 31.2 71.04 31.68 69.7 32.51C67.07 34.15 64.97 37.14 63.63 40.42C62.58 43.01 62 45.79 62 48.25C62 48.33 62 48.41 62 48.49Z" fill="#FFC59E" fill-opacity="1.000000" fill-rule="evenodd"/>
</svg>
